# xmcd
# 
# Track frame offsets:
#     150
#     17565
#     36507
#     60452
#     80982
#     123620
#     148860
#     167997
#     202387
#     216155
#     255092
#     274670
#     302660
# 
# Disc length: 4365
# 
# Revision: 13
# Processed by: cddbd v1.5.2PL0 Copyright (c) Steve Scherf et al.
# Submitted via: fre:ac v1.1beta1pre5
# 
DISCID=c7110b0d
DTITLE=Various Artist - Working Man
DYEAR=1996
DGENRE=Progressive Rock
TTITLE0=Sebastian Bach - Working Man
TTITLE1=James Labrie - By-Tor and the Snow Dog
TTITLE2=Jack Rusell - Analog Kid
TTITLE3=Mike Baker - The Trees
TTITLE4=Steve Morse - La Villa Strangiato
TTITLE5=Eric Martin - Mission
TTITLE6=Mark Slaughter - Anthem
TTITLE7=Sebastian Bach - Jacob's Ladder
TTITLE8=Fates Warning - Closer to the Heart
TTITLE9=Devin Townsend - Natural Science
TTITLE10=James Murphy - YYZ
TTITLE11=James Labrie - Red Barchetta
TTITLE12=Gregoor Van Der Loo - Freewill
EXTD=
EXTT0=
EXTT1=
EXTT2=
EXTT3=
EXTT4=
EXTT5=
EXTT6=
EXTT7=
EXTT8=
EXTT9=
EXTT10=
EXTT11=
EXTT12=
PLAYORDER=
